<?xml version="1.0" encoding="UTF-8"?>
<svg height="16px" viewBox="0 0 16 16" width="16px" xmlns="http://www.w3.org/2000/svg">
    <path d="M 6.6603231,2.0456778 C 6.3969991,2.0467578 6.1295001,2.1007178 5.8704911,2.2129478 C 4.8344891,2.6618848 4.3160661,3.9053618 4.7649971,4.9068228 L 6.2846091,8.3257908 C 6.6990091,9.3617978 7.8729031,9.8795218 8.9434381,9.4305888 C 9.9794361,8.9816518 10.497843,7.7727148 10.048907,6.7367118 L 8.5637041,3.3184268 C 8.2011021,2.5155248 7.4502641,2.0424398 6.6603231,2.0456778 Z M 3.9360741,4.6997478 C 3.0727381,5.3558828 2.1407351,5.9769808 1.7608672,7.2547128 C 1.2083332,9.1540468 2.1060721,10.949933 4.0399431,11.709666 L 5.4556641,12.26206 C 7.8039601,13.159931 10.15251,12.676859 11.084917,10.08686 C 11.602919,8.6709918 11.430122,7.4279128 10.773985,6.5991018 C 11.291989,7.9804538 10.635713,9.4996558 9.2543791,10.121257 C 7.8730341,10.708326 6.2499401,10.052464 5.6283321,8.6711288 L 4.1087421,5.2521638 C 4.0396741,5.0794938 3.9706071,4.9069498 3.9360741,4.6997478 Z M 11.982661,7.4624478 C 12.155326,8.4293918 12.086521,9.3615238 11.741185,10.293924 C 11.223182,11.744327 10.221701,12.746074 8.9784971,13.160474 C 9.5655651,13.678475 10.290516,13.954339 11.119321,13.954339 C 12.91506,13.954339 14.4,12.46953 14.4,10.639259 C 14.4,9.1197878 13.363993,7.8423198 11.982661,7.4624478 Z" fill="#2e3434"/>
</svg>
