<?xml version="1.0" encoding="UTF-8"?>
<svg xmlns="http://www.w3.org/2000/svg" height="16px" viewBox="0 0 16 16" width="16px"><path d="M 6.5957031 0.49414062 C 6.4868518 0.49355987 6.3770616 0.51519311 6.2734375 0.5625 C 6.0001085 0.6886514 5.8222656 0.96331077 5.8222656 1.2636719 L 5.8222656 5.3359375 L 4.0195312 3.7617188 C 3.7011491 3.482383 3.2187886 3.5116951 2.9394531 3.8300781 C 2.6601176 4.1514638 2.6903322 4.6366801 3.0117188 4.9160156 L 4.984375 6.6445312 L 3.0117188 8.375 C 2.690332 8.654335 2.6601176 9.1386494 2.9394531 9.4570312 C 3.2187886 9.7784185 3.7011491 9.8086319 4.0195312 9.5292969 L 5.8222656 7.9550781 L 5.8222656 12.027344 C 5.8222656 12.327705 6.0001085 12.602365 6.2734375 12.728516 C 6.5497685 12.851664 6.8704321 12.804758 7.0957031 12.603516 L 8.0957031 11.728516 L 8.0957031 9.6914062 L 7.359375 10.333984 L 7.359375 8.3398438 L 8.0957031 8.9824219 L 8.0957031 8.375 C 8.0957031 7.9168969 8.2478495 7.537351 8.4550781 7.2578125 L 7.7558594 6.6445312 L 10.171875 4.53125 C 10.340078 4.3870767 10.435547 4.1753916 10.435547 3.953125 C 10.435547 3.7308582 10.340078 3.5211263 10.171875 3.3769531 L 7.0957031 0.68554688 C 6.9549087 0.55977069 6.777122 0.4951086 6.5957031 0.49414062 z M 7.359375 2.9570312 L 8.5019531 3.953125 L 7.359375 4.9511719 L 7.359375 2.9570312 z M 12.193359 6.6132812 C 11.649707 6.6132812 11.650391 7.1992187 11.650391 7.1992188 L 11.650391 7.7871094 L 11.107422 7.7871094 C 11.107422 7.7871094 10.723635 7.7764156 10.322266 7.9941406 C 9.9187737 8.211864 9.4746094 8.7653581 9.4746094 9.546875 L 9.4746094 14.240234 C 9.4746094 14.240234 9.4681781 14.654393 9.6699219 15.089844 C 9.8716688 15.523002 10.383259 16 11.107422 16 L 14.369141 16 C 14.369141 16 14.75471 16.010696 15.158203 15.792969 C 15.559573 15.575247 16 15.021751 16 14.240234 L 16 9.546875 C 16 8.7653581 15.559573 8.211864 15.158203 7.9941406 C 14.75471 7.7764156 14.369141 7.7871094 14.369141 7.7871094 L 13.824219 7.7871094 L 13.824219 7.1992188 C 13.824219 6.6125082 13.28125 6.6132813 13.28125 6.6132812 L 12.193359 6.6132812 z M 11.107422 8.9609375 L 14.369141 8.9609375 C 14.670699 8.9609375 14.914063 9.221435 14.914062 9.546875 L 14.914062 14.240234 C 14.914062 14.565675 14.670699 14.826172 14.369141 14.826172 L 11.107422 14.826172 C 10.805864 14.826172 10.564453 14.565675 10.564453 14.240234 L 10.564453 9.546875 C 10.564453 9.221435 10.805864 8.9609375 11.107422 8.9609375 z" fill="#222222"/></svg>
