<?xml version="1.0" encoding="UTF-8" standalone="no"?>
<svg
   height="16px"
   viewBox="0 0 16 16"
   width="16px"
   version="1.1"
   id="svg1"
   xmlns="http://www.w3.org/2000/svg"
   xmlns:svg="http://www.w3.org/2000/svg">
  <defs
     id="defs1" />
  <path
       d="M 3,2 C 1.892,2 1,2.892 1,4 V 8.265625 C 0.40133902,8.61045 0,9.2567875 0,10 v 2 c 0,1.108 0.892,2 2,2 h 7 c 1.108,0 2,-0.892 2,-2 v -1 h 3 c 1.108,0 2,-0.892 2,-2 V 4 C 16,2.892 15.108,2 14,2 Z M 3.4003906,4 H 4.5996094 C 4.8212094,4 5,4.1787906 5,4.4003906 V 5.5996094 C 5,5.8212094 4.8212094,6 4.5996094,6 H 3.4003906 C 3.1787906,6 3,5.8212094 3,5.5996094 V 4.4003906 C 3,4.1787906 3.1787906,4 3.4003906,4 Z m 3,0 H 7.5996094 C 7.8212094,4 8,4.1787906 8,4.4003906 V 5.5996094 C 8,5.8212094 7.8212094,6 7.5996094,6 H 6.4003906 C 6.1787906,6 6,5.8212094 6,5.5996094 V 4.4003906 C 6,4.1787906 6.1787906,4 6.4003906,4 Z m 3,0 H 10.599609 C 10.821209,4 11,4.1787906 11,4.4003906 V 5.5996094 C 11,5.8212094 10.821209,6 10.599609,6 H 9.4003906 C 9.1787906,6 9,5.8212094 9,5.5996094 V 4.4003906 C 9,4.1787906 9.1787906,4 9.4003906,4 Z m 3.0000004,0 h 1.199218 C 13.821209,4 14,4.1787906 14,4.4003906 V 5.5996094 C 14,5.8212094 13.821209,6 13.599609,6 H 12.400391 C 12.178791,6 12,5.8212094 12,5.5996094 V 4.4003906 C 12,4.1787906 12.178791,4 12.400391,4 Z M 3.4003906,7 H 4.5996094 C 4.8212094,7 5,7.1787906 5,7.4003906 V 8.5996094 C 5,8.8212094 4.8212094,9 4.5996094,9 H 3.4003906 C 3.1787906,9 3,8.8212094 3,8.5996094 V 7.4003906 C 3,7.1787906 3.1787906,7 3.4003906,7 Z m 3,0 H 7.5996094 C 7.8212094,7 8,7.1787906 8,7.4003906 V 8.5996094 C 8,8.8212094 7.8212094,9 7.5996094,9 H 6.4003906 C 6.1787906,9 6,8.8212094 6,8.5996094 V 7.4003906 C 6,7.1787906 6.1787906,7 6.4003906,7 Z m 3,0 H 10.599609 C 10.821209,7 11,7.1787906 11,7.4003906 V 8.5996094 C 11,8.8212094 10.821209,9 10.599609,9 H 9.4003906 C 9.1787906,9 9,8.8212094 9,8.5996094 V 7.4003906 C 9,7.1787906 9.1787906,7 9.4003906,7 Z m 3.0000004,0 h 1.199218 C 13.821209,7 14,7.1787906 14,7.4003906 V 8.5996094 C 14,8.8212094 13.821209,9 13.599609,9 H 12.400391 C 12.178791,9 12,8.8212094 12,8.5996094 V 7.4003906 C 12,7.1787906 12.178791,7 12.400391,7 Z M 2.4003906,10 H 5.5996094 C 5.8212094,10 6,10.178791 6,10.400391 v 1.199218 C 6,11.821209 5.8212094,12 5.5996094,12 H 2.4003906 C 2.1787906,12 2,11.821209 2,11.599609 V 10.400391 C 2,10.178791 2.1787906,10 2.4003906,10 Z m 5,0 H 8.5996094 C 8.8212094,10 9,10.178791 9,10.400391 v 1.199218 C 9,11.821209 8.8212094,12 8.5996094,12 H 7.4003906 C 7.1787906,12 7,11.821209 7,11.599609 V 10.400391 C 7,10.178791 7.1787906,10 7.4003906,10 Z"
       id="path1" />
</svg>
