<?xml version="1.0" encoding="UTF-8"?>
<svg height="16px" viewBox="0 0 16 16" width="16px" xmlns="http://www.w3.org/2000/svg">
    <path d="M 8,9.100146 C 7.629399,9.100146 7.305156,8.799049 7.305156,8.428483 C 7.305156,8.057915 7.606253,7.733639 8,7.733639 C 8.393714,7.733639 8.69481,8.034736 8.69481,8.428483 C 8.69481,8.775905 8.370568,9.100146 8,9.100146 Z M 5.683877,15.4 H 10.292945 C 12.817514,15.4 14.068227,14.172466 14.068227,11.624716 V 5.55649 H 10.918283 C 10.779343,5.834442 10.455066,6.066033 10.084499,6.066033 H 5.915467 C 5.544901,6.066033 5.220658,5.857587 5.081684,5.55649 H 1.931773 V 11.647897 C 1.931773,14.172466 3.159305,15.4 5.683877,15.4 Z M 1.931773,4.792175 H 5.081684 C 5.220658,4.491079 5.544901,4.259453 5.915467,4.259453 H 10.038173 C 10.455066,4.259453 10.756162,4.467933 10.871959,4.792175 H 14.021902 V 4.328958 C 14.068227,1.827532 12.84066,0.6 10.31609,0.6 H 5.683877 C 3.159305,0.6 1.931773,1.827532 1.931773,4.352102 Z" fill="#2e3434"/>
</svg>
