<?xml version="1.0" encoding="UTF-8"?>
<svg height="16px" viewBox="0 0 16 16" width="16px" xmlns="http://www.w3.org/2000/svg">
    <path d="M 8.0247838,0.32 C 6.3260638,0.32 5.2730438,1.371608 4.7945138,2.113304 C 4.6270438,2.376465 4.5550338,2.641444 4.5550338,2.95247 V 4.123091 C 4.5550338,4.434154 4.6270438,4.699095 4.7945138,4.962292 C 5.2730438,5.656125 6.3260638,6.683782 8.0247838,6.707699 C 9.8670678,6.73161 11.468615,5.272842 11.444702,3.502336 C 11.420788,1.755785 9.8909798,0.32 8.0247838,0.32 Z M 5.9900538,2.233985 C 6.2053838,2.233985 6.3732238,2.401863 6.3732238,2.617196 V 4.362598 C 6.3732238,4.577933 6.2053838,4.745773 5.9900538,4.745773 C 5.7747138,4.745773 5.6068738,4.577933 5.6068738,4.362598 V 2.617196 C 5.6068738,2.401863 5.7747138,2.233985 5.9900538,2.233985 Z M 10.65533,6.588906 C 10.033277,7.067405 9.2683338,7.377394 8.4309538,7.449169 V 13.072404 H 10.65533 Z M 8.4309538,13.86178 V 14.986427 C 8.4309538,15.441009 8.7427138,15.68 9.1973338,15.68 H 9.8659928 C 10.34449,15.68 10.65533,15.441009 10.65533,14.986427 V 13.86178 Z" fill="#2e3434"/>
</svg>
