<?xml version="1.0" encoding="UTF-8"?>
<svg xmlns="http://www.w3.org/2000/svg" height="16px" viewBox="0 0 16 16" width="16px"><path d="M 1.7790107,3.744856 C 1.4163414,3.744856 1.124373,4.0368238 1.124373,4.399494 V 11.600506 C 1.124373,11.963177 1.4163414,12.255144 1.7790107,12.255144 H 14.220987 C 14.583657,12.255144 14.875627,11.963177 14.875627,11.600506 V 4.399494 C 14.875627,4.0368238 14.583657,3.744856 14.220987,3.744856 Z M 2.6727874,5.0541311 H 3.7569984 V 6.3634061 H 2.447723 V 5.3111411 C 2.447723,5.1684301 2.5484063,5.0541311 2.6727874,5.0541311 Z M 4.4116363,5.0541311 H 5.7209106 V 6.3634061 H 4.4116363 Z M 6.3755485,5.0541311 H 7.6848235 V 6.3634061 H 6.3755485 Z M 8.3394607,5.0541311 H 9.4237376 C 9.5481184,5.0541311 9.6487368,5.1684301 9.6487368,5.3111411 V 6.3634061 H 8.3394607 Z M 10.293163,5.0541311 H 11.602437 V 6.3634061 H 10.293163 Z M 12.257074,5.0541311 H 13.56635 V 6.3634061 H 12.257074 Z M 3.1023605,7.0180432 H 4.4116363 V 8.3273183 H 3.1023605 Z M 5.0662725,7.0180432 H 6.3755485 V 8.3273183 H 5.0662725 Z M 7.0301856,7.0180432 H 8.3394607 V 8.3273183 H 7.0301856 Z M 8.9838862,7.0180432 H 10.293163 V 8.3273183 H 8.9838862 Z M 10.9478,7.0180432 H 12.257074 V 8.3273183 H 10.9478 Z M 4.6226249,9.6365934 H 11.373577 C 11.497957,9.6365934 11.598575,9.7508933 11.598575,9.8936043 V 10.688858 C 11.598575,10.831569 11.497957,10.945869 11.373577,10.945869 H 4.6226249 C 4.498244,10.945869 4.3975614,10.831569 4.3975614,10.688858 V 9.8936043 C 4.3975614,9.7508933 4.498244,9.6365934 4.6226249,9.6365934 Z" fill="#222222"/></svg>
