<?xml version="1.0" encoding="UTF-8"?>
<svg height="16px" viewBox="0 0 16 16" width="16px" xmlns="http://www.w3.org/2000/svg">
    <path d="M 9.3396769,2.0456778 C 9.6030009,2.0467578 9.8704999,2.1007178 10.129509,2.2129478 C 11.165511,2.6618848 11.683934,3.9053618 11.235003,4.9068228 L 9.7153909,8.3257908 C 9.3009909,9.3617978 8.1270969,9.8795218 7.0565619,9.4305888 C 6.0205639,8.9816518 5.5021569,7.7727148 5.9510929,6.7367118 L 7.4362959,3.3184268 C 7.7988979,2.5155248 8.5497359,2.0424398 9.3396769,2.0456778 Z M 12.063926,4.6997478 C 12.927262,5.3558828 13.859265,5.9769808 14.239133,7.2547128 C 14.791667,9.1540468 13.893928,10.949933 11.960057,11.709666 L 10.544336,12.26206 C 8.1960399,13.159931 5.8474899,12.676859 4.9150829,10.08686 C 4.3970809,8.6709918 4.5698779,7.4279128 5.2260149,6.5991018 C 4.7080109,7.9804538 5.3642869,9.4996558 6.7456209,10.121257 C 8.1269659,10.708326 9.7500599,10.052464 10.371668,8.6711288 L 11.891258,5.2521638 C 11.960326,5.0794938 12.029393,4.9069498 12.063926,4.6997478 Z M 4.0173389,7.4624478 C 3.8446739,8.4293918 3.9134789,9.3615238 4.2588149,10.293924 C 4.7768179,11.744327 5.7782989,12.746074 7.0215029,13.160474 C 6.4344349,13.678475 5.7094839,13.954339 4.8806789,13.954339 C 3.0849399,13.954339 1.5999998,12.46953 1.5999998,10.639259 C 1.5999998,9.1197878 2.6360069,7.8423198 4.0173389,7.4624478 Z" fill="#2e3434"/>
</svg>
