<?xml version="1.0" encoding="UTF-8" standalone="no"?>
<svg
   height="16px"
   viewBox="0 0 16 16"
   width="16px"
   version="1.1"
   id="svg1"
   xmlns="http://www.w3.org/2000/svg"
   xmlns:svg="http://www.w3.org/2000/svg">
  <defs
     id="defs1" />
  <path
       d="M 2,2 C 0.892,2 0,2.892 0,4 v 5 c 0,1.108 0.892,2 2,2 h 3 v 1 c 0,1.108 0.892,2 2,2 h 7 c 1.108,0 2,-0.892 2,-2 V 10 C 16,9.2567875 15.598661,8.61045 15,8.265625 V 4 C 15,2.892 14.108,2 13,2 Z M 2.4003906,4 H 3.5996094 C 3.8212094,4 4,4.1787906 4,4.4003906 V 5.5996094 C 4,5.8212094 3.8212094,6 3.5996094,6 H 2.4003906 C 2.1787906,6 2,5.8212094 2,5.5996094 V 4.4003906 C 2,4.1787906 2.1787906,4 2.4003906,4 Z m 3,0 H 6.5996094 C 6.8212094,4 7,4.1787906 7,4.4003906 V 5.5996094 C 7,5.8212094 6.8212094,6 6.5996094,6 H 5.4003906 C 5.1787906,6 5,5.8212094 5,5.5996094 V 4.4003906 C 5,4.1787906 5.1787906,4 5.4003906,4 Z m 3,0 H 9.5996094 C 9.8212094,4 10,4.1787906 10,4.4003906 V 5.5996094 C 10,5.8212094 9.8212094,6 9.5996094,6 H 8.4003906 C 8.1787906,6 8,5.8212094 8,5.5996094 V 4.4003906 C 8,4.1787906 8.1787906,4 8.4003906,4 Z m 3.0000004,0 h 1.199218 C 12.821209,4 13,4.1787906 13,4.4003906 V 5.5996094 C 13,5.8212094 12.821209,6 12.599609,6 H 11.400391 C 11.178791,6 11,5.8212094 11,5.5996094 V 4.4003906 C 11,4.1787906 11.178791,4 11.400391,4 Z M 2.4003906,7 H 3.5996094 C 3.8212094,7 4,7.1787906 4,7.4003906 V 8.5996094 C 4,8.8212094 3.8212094,9 3.5996094,9 H 2.4003906 C 2.1787906,9 2,8.8212094 2,8.5996094 V 7.4003906 C 2,7.1787906 2.1787906,7 2.4003906,7 Z m 3,0 H 6.5996094 C 6.8212094,7 7,7.1787906 7,7.4003906 V 8.5996094 C 7,8.8212094 6.8212094,9 6.5996094,9 H 5.4003906 C 5.1787906,9 5,8.8212094 5,8.5996094 V 7.4003906 C 5,7.1787906 5.1787906,7 5.4003906,7 Z m 3,0 H 9.5996094 C 9.8212094,7 10,7.1787906 10,7.4003906 V 8.5996094 C 10,8.8212094 9.8212094,9 9.5996094,9 H 8.4003906 C 8.1787906,9 8,8.8212094 8,8.5996094 V 7.4003906 C 8,7.1787906 8.1787906,7 8.4003906,7 Z m 3.0000004,0 h 1.199218 C 12.821209,7 13,7.1787906 13,7.4003906 V 8.5996094 C 13,8.8212094 12.821209,9 12.599609,9 H 11.400391 C 11.178791,9 11,8.8212094 11,8.5996094 V 7.4003906 C 11,7.1787906 11.178791,7 11.400391,7 Z M 7.4003906,10 H 8.5996094 C 8.8212094,10 9,10.178791 9,10.400391 v 1.199218 C 9,11.821209 8.8212094,12 8.5996094,12 H 7.4003906 C 7.1787906,12 7,11.821209 7,11.599609 V 10.400391 C 7,10.178791 7.1787906,10 7.4003906,10 Z m 3.0000004,0 h 3.199218 C 13.821209,10 14,10.178791 14,10.400391 v 1.199218 C 14,11.821209 13.821209,12 13.599609,12 H 10.400391 C 10.178791,12 10,11.821209 10,11.599609 V 10.400391 C 10,10.178791 10.178791,10 10.400391,10 Z"
       id="path1" />
</svg>
