<?xml version="1.0" encoding="UTF-8"?>
<svg height="16px" viewBox="0 0 16 16" width="16px" xmlns="http://www.w3.org/2000/svg">
    <path d="M 8.0039064,0.04999978 C 3.56552,0.04999978 0.88258168,3.0624579 0.88258168,7.4389118 C 0.88258168,7.6453516 0.96299268,7.8044946 1.1091515,7.8940046 V 8.4408974 L 0.98414748,8.4487096 C 0.67804248,8.5761627 0.45955428,8.8746954 0.38842498,9.2807676 C 0.30460018,10.135303 0.50382238,11.602103 0.86695608,12.857056 C 1.4124389,14.932312 1.8618485,15.718923 2.5388856,15.90403 C 3.3951375,16.138134 4.0104485,15.449522 3.7811129,14.487968 L 2.4334132,9.2417042 C 2.329883,8.8492285 2.085542,8.5922793 1.7497974,8.464335 V 7.8959576 C 1.8941611,7.8070587 1.9763673,7.6478946 1.9763673,7.4389118 C 1.9852485,5.7781129 2.4150627,4.3823756 3.19711,3.3294035 C 4.5588502,2.5494671 6.1304443,2.171162 8.0039064,2.171162 C 9.8817064,2.171162 11.480311,2.5516542 12.822422,3.3352627 C 13.603176,4.3843157 14.035216,5.7721828 14.05293,7.4193791 C 14.05293,7.6176955 14.129003,7.7696615 14.259969,7.8608004 V 8.3940207 H 14.254108 L 14.259969,8.4096463 V 8.4604289 C 13.919366,8.587129 13.671082,8.8455674 13.566586,9.2417042 L 12.218885,14.487968 C 11.989551,15.449522 12.606815,16.138134 13.463068,15.90403 C 14.140104,15.718923 14.587559,14.932312 15.133043,12.857056 C 15.496176,11.602103 15.695399,10.135303 15.611575,9.2807676 C 15.540443,8.8746954 15.321956,8.5761627 15.015853,8.4487096 L 14.900615,8.4408974 V 7.876426 C 15.0447,7.7874721 15.127184,7.6281429 15.127184,7.4193791 C 15.127184,3.0429252 12.442293,0.04999978 8.0039064,0.04999978 Z M 4.2147211,8.0053361 C 4.1122317,8.0083723 4.0057863,8.0246638 3.9002579,8.0561189 C 3.843608,8.0709593 3.7934354,8.092077 3.7459558,8.1147148 C 3.6608671,8.1422606 3.5930569,8.1918142 3.5467304,8.2572973 C 3.44155,8.3731141 3.4022686,8.5197139 3.4471182,8.6752799 L 4.2479251,11.567951 L 4.9999025,14.462577 C 5.0872874,14.765302 5.2802757,14.897238 5.5292167,14.841494 C 5.5780672,14.82809 5.6249598,14.810023 5.6678933,14.786805 C 5.6949951,14.782025 5.7215789,14.776653 5.7499268,14.769227 C 6.3502623,14.590276 6.6831671,14.038154 6.5312021,13.46645 L 5.2401453,8.7475473 C 5.1487274,8.4036341 4.9004133,8.1579011 4.5858271,8.0561189 C 4.5408856,8.0415784 4.4945031,8.0314711 4.4471506,8.0229147 C 4.4041031,8.0151375 4.3609268,8.0099213 4.3162863,8.0072892 C 4.2828062,8.0053152 4.2488841,8.0043241 4.2147211,8.0053361 Z M 11.783325,8.0053361 C 11.749162,8.0043241 11.71524,8.0053152 11.68176,8.0072892 C 11.63712,8.0099213 11.59199,8.0151375 11.548943,8.0229147 C 11.50159,8.0314711 11.457161,8.0415784 11.412219,8.0561189 C 11.097634,8.1579011 10.847366,8.4036341 10.755948,8.7475473 L 9.4668444,13.46645 C 9.3148794,14.038154 9.6458314,14.590276 10.246166,14.769227 C 10.274515,14.776653 10.30305,14.782025 10.330153,14.786805 C 10.373085,14.810023 10.418026,14.82809 10.466876,14.841494 C 10.715817,14.897238 10.910759,14.765302 10.998143,14.462577 L 11.748167,11.567951 L 12.548975,8.6752799 C 12.593823,8.5197139 12.554543,8.3731141 12.449363,8.2572973 C 12.403037,8.1918142 12.337178,8.1422606 12.25209,8.1147148 C 12.204611,8.092077 12.152485,8.0709593 12.095835,8.0561189 C 11.990307,8.0246638 11.885814,8.0083723 11.783325,8.0053361 Z" fill="#2e3434"/>
</svg>
