<?xml version="1.0" encoding="UTF-8"?>
<svg height="16px" viewBox="0 0 16 16" width="16px" xmlns="http://www.w3.org/2000/svg">
    <path d="M 1.620652,7.638691 H 4.676145 C 4.75872,7.473541 4.92387,7.349661 5.109672,7.349661 H 10.869676 C 11.076128,7.349661 11.24131,7.452891 11.323885,7.638691 H 14.379348 C 14.172925,5.615465 12.707101,4.562579 10.064515,4.562579 H 5.935483 C 3.313548,4.583231 1.827105,5.636117 1.620652,7.638691 Z M 10.064515,11.437421 C 12.851631,11.437421 14.358726,10.260631 14.4,8.051601 H 11.323885 C 11.24131,8.216781 11.076128,8.340631 10.869676,8.340631 H 5.109672 C 4.903218,8.340631 4.738069,8.237401 4.676145,8.051601 H 1.6 C 1.620652,10.178051 3.230974,11.437421 5.935483,11.437421 Z M 8.000014,9.682571 C 7.77291,9.682571 7.587108,9.496771 7.587108,9.269671 C 7.587108,9.042561 7.77291,8.856761 8.000014,8.856761 C 8.227089,8.856761 8.41292,9.042561 8.41292,9.269671 C 8.41292,9.496771 8.227089,9.682571 8.000014,9.682571 Z" fill="#2e3434"/>
</svg>
