<?xml version="1.0" encoding="UTF-8"?>
<svg height="16px" viewBox="0 0 16 16" width="16px" xmlns="http://www.w3.org/2000/svg">
    <path d="M 4.69951,7.385752 C 5.345941,7.385752 5.895168,7.93548 5.895168,8.614235 C 5.895168,9.293003 5.378266,9.809906 4.69951,9.809906 C 4.020743,9.809906 3.503217,9.293003 3.503217,8.614235 C 3.503217,7.93548 4.020743,7.385752 4.69951,7.385752 Z M 4.69951,7.902778 C 4.311647,7.902778 4.020865,8.226385 4.020865,8.614235 C 4.020865,9.002099 4.311647,9.292881 4.69951,9.292881 C 5.087361,9.292881 5.410468,9.002099 5.378143,8.614235 C 5.378143,8.226385 5.087361,7.902778 4.69951,7.902778 Z M 11.260488,8.387613 C 12.585686,8.516897 13.943465,9.616352 13.943465,11.329414 C 13.943465,13.171762 12.715227,14.4 10.872869,14.4 C 10.16179,14.4 9.483024,14.140919 9.095171,13.88234 C 10.097142,12.169277 10.807977,10.359243 11.260488,8.387613 Z M 10.614046,1.6 C 11.098869,1.6 11.228286,1.761608 11.228286,2.084824 C 11.228286,2.828226 10.840423,3.377833 10.097019,3.507116 C 8.868781,3.701048 7.964027,3.92756 6.962044,4.412384 C 6.57418,4.606315 6.412438,4.864773 6.509411,5.252625 L 6.994233,8.064385 C 7.252813,9.680488 6.153992,10.90897 4.69951,10.90897 C 3.762163,10.90897 2.727611,10.327176 2.501356,9.131261 L 2.113749,7.062537 C 1.725885,4.896964 3.341988,3.28086 5.992384,2.37585 C 7.543839,1.826378 9.062591,1.6 10.614046,1.6 Z M 7.381852,6.222283 C 8.933307,6.610148 10.032629,7.289037 10.517463,8.291019 C 10.097276,10.133366 9.450454,11.814116 8.513119,13.462531 C 8.060608,13.688786 7.576286,13.785757 6.929842,13.785757 C 4.473377,13.785757 2.275235,12.589965 2.145939,10.198149 C 2.630774,11.070835 3.600555,11.619805 4.69951,11.619805 C 6.638815,11.619805 7.996094,9.939569 7.672878,7.935603 Z M 4.69951,7.385752 C 4.020743,7.385752 3.503217,7.93548 3.503217,8.614235 C 3.503217,9.293003 4.020743,9.809906 4.69951,9.809906 C 5.378266,9.809906 5.895168,9.293003 5.895168,8.614235 C 5.895168,7.93548 5.345941,7.385752 4.69951,7.385752 Z M 4.69951,7.902778 C 5.087361,7.902778 5.378143,8.226385 5.378143,8.614235 C 5.410468,9.002099 5.087361,9.292881 4.69951,9.292881 C 4.311647,9.292881 4.020865,9.002099 4.020865,8.614235 C 4.020865,8.226385 4.311647,7.902778 4.69951,7.902778 Z" fill="#2e3434"/>
</svg>
