<?xml version="1.0" encoding="UTF-8"?>
<svg height="16px" viewBox="0 0 16 16" width="16px" xmlns="http://www.w3.org/2000/svg">
    <path d="M 11.30049,7.385752 C 10.654059,7.385752 10.104832,7.93548 10.104832,8.614235 C 10.104832,9.293003 10.621734,9.809906 11.30049,9.809906 C 11.979257,9.809906 12.496783,9.293003 12.496783,8.614235 C 12.496783,7.93548 11.979257,7.385752 11.30049,7.385752 Z M 11.30049,7.902778 C 11.688353,7.902778 11.979135,8.226385 11.979135,8.614235 C 11.979135,9.002099 11.688353,9.292881 11.30049,9.292881 C 10.912639,9.292881 10.589532,9.002099 10.621857,8.614235 C 10.621857,8.226385 10.912639,7.902778 11.30049,7.902778 Z M 4.739512,8.387613 C 3.414314,8.516897 2.056535,9.616352 2.056535,11.329414 C 2.056535,13.171762 3.284773,14.4 5.127131,14.4 C 5.83821,14.4 6.516976,14.140919 6.904829,13.88234 C 5.902858,12.169277 5.192023,10.359243 4.739512,8.387613 Z M 5.385954,1.6 C 4.901131,1.6 4.771714,1.761608 4.771714,2.084824 C 4.771714,2.828226 5.159577,3.377833 5.902981,3.507116 C 7.131219,3.701048 8.035973,3.92756 9.037956,4.412384 C 9.42582,4.606315 9.587562,4.864773 9.490589,5.252625 L 9.005767,8.064385 C 8.747187,9.680488 9.846008,10.90897 11.30049,10.90897 C 12.237837,10.90897 13.272389,10.327176 13.498644,9.131261 L 13.886251,7.062537 C 14.274115,4.896964 12.658012,3.28086 10.007616,2.37585 C 8.456161,1.826378 6.937409,1.6 5.385954,1.6 Z M 8.618148,6.222283 C 7.066693,6.610148 5.967371,7.289037 5.482537,8.291019 C 5.902724,10.133366 6.549546,11.814116 7.486881,13.462531 C 7.939392,13.688786 8.423714,13.785757 9.070158,13.785757 C 11.526623,13.785757 13.724765,12.589965 13.854061,10.198149 C 13.369226,11.070835 12.399445,11.619805 11.30049,11.619805 C 9.361185,11.619805 8.003906,9.939569 8.327122,7.935603 Z M 11.30049,7.385752 C 11.979257,7.385752 12.496783,7.93548 12.496783,8.614235 C 12.496783,9.293003 11.979257,9.809906 11.30049,9.809906 C 10.621734,9.809906 10.104832,9.293003 10.104832,8.614235 C 10.104832,7.93548 10.654059,7.385752 11.30049,7.385752 Z M 11.30049,7.902778 C 10.912639,7.902778 10.621857,8.226385 10.621857,8.614235 C 10.589532,9.002099 10.912639,9.292881 11.30049,9.292881 C 11.688353,9.292881 11.979135,9.002099 11.979135,8.614235 C 11.979135,8.226385 11.688353,7.902778 11.30049,7.902778 Z" fill="#2e3434"/>
</svg>
