<?xml version="1.0" encoding="UTF-8"?>
<svg height="16px" viewBox="0 0 16 16" width="16px" xmlns="http://www.w3.org/2000/svg">
    <path d="M 11.082488,4.3019261 C 12.578264,4.3019261 13.445447,5.4801651 13.445447,6.6872841 C 13.445447,8.4979621 11.897933,9.6801811 10.402156,9.6801811 C 9.116314,9.6801811 7.960804,8.8675701 7.960804,7.2668251 C 7.960804,5.8235321 9.324293,4.3019261 11.082488,4.3019261 Z M 12.109983,6.5277001 C 11.876268,6.5190901 11.562822,6.7357641 11.188877,7.1884341 C 10.716525,7.8182361 10.58594,8.2103751 10.822114,8.4203091 C 11.05829,8.6302431 11.451807,8.4219361 11.9504,7.8183721 C 12.42275,7.2148101 12.553337,6.8188251 12.317161,6.6088911 C 12.258118,6.5564081 12.187889,6.5305701 12.109983,6.5277001 Z M 5.889016,0.6007024 C 7.306067,0.5744604 8.90629,1.2831044 9.982199,2.7788811 C 10.139651,2.9888151 10.269904,3.1992621 10.427355,3.5404041 C 8.616677,3.8553051 7.146086,5.4823891 7.146086,7.2668251 C 7.146086,7.7654171 7.253566,8.2356171 7.437257,8.6554851 C 6.335106,8.4980351 5.650904,8.2379061 5.021103,7.8967601 C 3.630292,7.1095111 2.554553,5.8235211 2.554553,3.9603621 C 2.554553,1.8347834 4.052095,0.6269444 5.889016,0.6007024 Z M 4.654339,2.4597141 C 4.527488,2.4492061 4.39478,2.4956931 4.312774,2.5941001 C 4.155324,2.7515501 4.183322,3.0144351 4.340771,3.1456441 L 5.572647,4.1955381 C 5.730097,4.3267461 5.991938,4.3260351 6.149388,4.1423431 C 6.280597,3.9586501 6.256443,3.7230511 6.098994,3.5656021 L 4.864319,2.5437051 C 4.805275,2.4945021 4.730452,2.4660181 4.654339,2.4597141 Z M 5.597845,9.1034381 C 6.30637,9.3658571 7.094828,9.5241081 7.960804,9.5765911 V 14.61328 C 7.960804,15.111872 7.620525,15.4 7.095693,15.4 H 6.437758 C 5.939167,15.4 5.597845,15.138114 5.597845,14.61328 Z" fill="#2e3434"/>
</svg>
