<?xml version="1.0" encoding="UTF-8"?>
<svg height="16px" viewBox="0 0 16 16" width="16px" xmlns="http://www.w3.org/2000/svg">
    <path d="M 9.100761,0.10046509 C 6.320795,0.07294839 3.018,2.8521136 3.018,5.5219306 C 3.018,7.7513266 5.247339,9.4864446 7.036398,9.4864446 C 9.54108,9.4864446 12.982,6.5973486 12.982,4.1753116 C 12.982,1.8357293 11.192574,0.12799379 9.100761,0.10046509 Z M 10.654283,1.9495301 C 10.933869,1.9428172 11.21346,2.0733387 11.385559,2.3313786 C 11.688313,2.7167066 11.60482,3.2380856 11.191952,3.5408406 L 9.926042,4.4225676 C 9.513172,4.7253236 8.962123,4.6142416 8.686957,4.2289616 C 8.41167,3.8160696 8.494286,3.2672106 8.907154,3.0194996 L 10.173065,2.1109456 C 10.317576,2.0077353 10.486605,1.9535668 10.654283,1.9495301 Z M 4.448127,5.4115986 C 4.943521,5.4115986 5.743425,6.0461406 6.21135,6.8442906 C 6.706745,7.6149706 6.67992,8.2473586 6.184526,8.2473586 C 5.661543,8.2473586 4.889639,7.6149706 4.394244,6.8442906 C 3.926317,6.0461406 3.952613,5.4115986 4.448127,5.4115986 Z M 11.578933,8.3306346 C 10.698138,9.1287826 9.651982,9.7610676 8.606013,10.091291 V 15.074459 C 8.606013,15.624911 8.963471,15.899738 9.541394,15.899738 H 10.640754 C 11.218796,15.899738 11.578933,15.624911 11.578933,15.074459 Z" fill="#2e3434"/>
</svg>
