<?xml version="1.0" encoding="UTF-8"?>
<svg height="16px" viewBox="0 0 16 16" width="16px" xmlns="http://www.w3.org/2000/svg">
    <path d="M 5.025343,12.927692 H 10.974656 C 13.298281,12.927692 14.4,11.805956 14.4,9.5223645 V 6.8381715 H 10.914546 C 10.814404,7.0985965 10.594072,7.2588485 10.293585,7.2588485 H 5.746477 C 5.466035,7.2588485 5.205641,7.0985965 5.125516,6.8381715 H 1.6 V 9.5223645 C 1.6,11.825973 2.721765,12.927692 5.025343,12.927692 Z M 7.989976,9.4021745 C 7.709564,9.4021745 7.489203,9.1818435 7.489203,8.9014015 C 7.489203,8.6209615 7.709564,8.3805825 7.989976,8.3805825 C 8.270417,8.3805825 8.510796,8.6209615 8.510796,8.9014015 C 8.530842,9.1618265 8.290464,9.4021745 7.989976,9.4021745 Z M 1.6,6.3173515 H 5.085453 C 5.165578,6.0569575 5.425973,5.8967055 5.706414,5.8967055 H 10.233505 C 10.513947,5.8967055 10.754325,6.0569575 10.854468,6.3173515 H 14.339919 V 6.1370845 C 14.339919,4.0738545 13.118012,3.0723085 10.914546,3.0723085 H 5.025343 C 2.841954,3.0723085 1.6,4.0738545 1.6,6.1370845 Z" fill="#2e3434"/>
</svg>
