<?xml version="1.0" encoding="UTF-8"?>
<svg height="16px" viewBox="0 0 16 16" width="16px" xmlns="http://www.w3.org/2000/svg">
    <path d="M 7.9752162,0.32 C 9.6739362,0.32 10.726956,1.371608 11.205486,2.113304 C 11.372956,2.376465 11.444966,2.641444 11.444966,2.95247 V 4.123091 C 11.444966,4.434154 11.372956,4.699095 11.205486,4.962292 C 10.726956,5.656125 9.6739362,6.683782 7.9752162,6.707699 C 6.1329322,6.73161 4.5313852,5.272842 4.5552982,3.502336 C 4.5792122,1.755785 6.1090202,0.32 7.9752162,0.32 Z M 10.009946,2.233985 C 9.7946162,2.233985 9.6267762,2.401863 9.6267762,2.617196 V 4.362598 C 9.6267762,4.577933 9.7946162,4.745773 10.009946,4.745773 C 10.225286,4.745773 10.393126,4.577933 10.393126,4.362598 V 2.617196 C 10.393126,2.401863 10.225286,2.233985 10.009946,2.233985 Z M 5.3446702,6.588906 C 5.9667232,7.067405 6.7316662,7.377394 7.5690462,7.449169 V 13.072404 H 5.3446702 Z M 7.5690462,13.86178 V 14.986427 C 7.5690462,15.441009 7.2572862,15.68 6.8026662,15.68 H 6.1340072 C 5.6555102,15.68 5.3446702,15.441009 5.3446702,14.986427 V 13.86178 Z" fill="#2e3434"/>
</svg>
