<?xml version="1.0" encoding="UTF-8"?>
<svg height="16px" viewBox="0 0 16 16" width="16px" xmlns="http://www.w3.org/2000/svg">
    <path d="M 5.2760355,2.5930039 C 4.8741522,2.5877966 4.4509286,2.6796374 4.0479807,2.8787859 C 3.9888767,2.9086403 3.9306731,2.9404554 3.8739412,2.9743267 C 3.8172105,3.0081969 3.7617818,3.0441707 3.7077239,3.0818794 C 3.8494413,3.1518803 3.9849533,3.2333742 4.1127915,3.3254793 C 4.2406296,3.4175811 4.3607337,3.520192 4.4720455,3.6324922 C 4.8687591,4.0347407 5.1285361,4.5348462 5.2372051,5.0653164 C 5.3458773,5.5957844 5.3036542,6.1565635 5.0966888,6.6805598 C 5.2192048,6.6579324 5.340611,6.6266996 5.4598534,6.5872558 C 5.5790938,6.5478109 5.6962134,6.5002882 5.8098887,6.4447821 C 6.3961239,6.1552721 6.8280001,5.6934513 7.0527488,5.1809706 C 7.2774974,4.6684911 7.2949358,4.1053872 7.0516315,3.6129373 C 6.8082755,3.120554 6.3504006,2.792059 5.8068151,2.6592112 C 5.636944,2.6176972 5.4587104,2.5953706 5.2760355,2.5930039 Z M 10.73021,2.5930039 C 10.547535,2.5953706 10.3693,2.6176972 10.19943,2.6592112 C 9.6558429,2.792059 9.1979682,3.120554 8.9546122,3.6129373 C 8.71131,4.1053872 8.7287484,4.6684911 8.953496,5.1809706 C 9.1782447,5.6934513 9.6101189,6.1552721 10.196356,6.4447821 C 10.310032,6.5002882 10.427149,6.5478109 10.546392,6.5872558 C 10.665632,6.6266996 10.787041,6.6579324 10.909555,6.6805598 C 10.702591,6.1565635 10.660369,5.5957844 10.769039,5.0653164 C 10.877708,4.5348462 11.137486,4.0347407 11.534198,3.6324922 C 11.645511,3.520192 11.765615,3.4175811 11.893452,3.3254793 C 12.021292,3.2333742 12.156803,3.1518803 12.29852,3.0818794 C 12.244462,3.0441707 12.189033,3.0081969 12.132303,2.9743267 C 12.075571,2.9404554 12.017367,2.9086403 11.958263,2.8787859 C 11.555316,2.6796374 11.132092,2.5877966 10.73021,2.5930039 Z M 13.538588,3.1452936 C 12.228806,3.1629555 11.179648,4.2359638 11.191428,5.5458112 C 11.202776,6.523976 11.811658,7.3955173 12.726216,7.7426766 V 8.556444 V 8.6179028 C 12.726216,8.8947079 12.902491,9.0533727 13.182407,9.070463 V 13.345747 H 13.183525 V 13.407206 H 13.965166 V 9.0707424 C 14.244836,9.0551002 14.421357,8.909944 14.421357,8.6179028 V 7.7401627 C 14.531821,7.6968781 14.637757,7.6449861 14.738986,7.5859574 C 14.781502,7.5611845 14.82324,7.5350989 14.864139,7.5077369 C 14.880699,7.4965843 14.896498,7.4843886 14.912745,7.4728171 C 15.557011,7.032748 15.944588,6.3047783 15.95,5.5245804 L 15.94972,5.4815591 C 15.926128,4.1718664 14.848373,3.1275769 13.538588,3.1452936 Z M 2.3972588,3.2067525 C 1.0874766,3.2244133 0.03831939,4.2974216 0.05009828,5.607269 C 0.0614453,6.5854348 0.67032833,7.4569762 1.584888,7.8041355 V 8.6179028 C 1.584888,8.909944 1.7614081,9.0551002 2.0410784,9.0707424 V 13.407206 H 2.8227202 V 9.0707424 C 3.1033273,9.0540313 3.2800279,8.8951011 3.2800279,8.6179028 V 7.8016215 C 4.1985032,7.4499963 4.8059917,6.5695187 4.8086722,5.5860393 L 4.8083918,5.5430179 C 4.7847985,4.2333253 3.7070439,3.1890358 2.3972588,3.2067525 Z M 13.546969,4.5091161 C 14.121885,4.5013241 14.594931,4.9597597 14.605174,5.5346361 L 14.605454,5.5533529 C 14.605469,6.128225 14.14083,6.5949877 13.565965,6.5975908 C 12.991083,6.6002401 12.522191,6.1377166 12.516977,5.5628521 C 12.511684,4.9879532 12.972099,4.5169243 13.546969,4.5091161 Z M 2.4056396,4.570575 C 2.9805557,4.5627829 3.4536022,5.0212186 3.4638448,5.5960949 L 3.4641241,5.6148129 C 3.4641402,6.1896838 2.9995014,6.6564455 2.4246358,6.6590497 C 1.849753,6.661699 1.3808606,6.1991744 1.375648,5.6243099 C 1.3703559,5.0494121 1.8307708,4.5783843 2.4056396,4.570575 Z M 2.4318993,5.0183845 C 2.1224165,5.0183845 1.8298845,5.295745 1.8298845,5.6215167 C 1.8298845,5.9309983 2.1061266,6.2232532 2.4318993,6.2232522 C 2.7576688,6.2232522 3.0350314,5.9309983 3.0350314,5.6215167 C 3.0350314,5.3120328 2.7413799,5.0183845 2.4318993,5.0183845 Z M 13.574345,5.0183845 C 13.264865,5.0183845 12.971214,5.3120328 12.971214,5.6215167 C 12.971214,5.9309983 13.248575,6.2232522 13.574345,6.2232522 C 13.900118,6.2232532 14.17636,5.9309983 14.17636,5.6215167 C 14.17636,5.295745 13.883828,5.0183845 13.574345,5.0183845 Z" fill="#2e3434"/>
</svg>
