<?xml version="1.0" encoding="UTF-8"?>
<svg height="16px" viewBox="0 0 16 16" width="16px" xmlns="http://www.w3.org/2000/svg">
    <path d="M 4.917512,4.3019261 C 3.421736,4.3019261 2.554553,5.4801651 2.554553,6.6872841 C 2.554553,8.4979621 4.102067,9.6801811 5.597844,9.6801811 C 6.883686,9.6801811 8.039196,8.8675701 8.039196,7.2668251 C 8.039196,5.8235321 6.675707,4.3019261 4.917512,4.3019261 Z M 3.890017,6.5277001 C 4.123732,6.5190901 4.437178,6.7357641 4.811123,7.1884341 C 5.283475,7.8182361 5.41406,8.2103751 5.177886,8.4203091 C 4.94171,8.6302431 4.548193,8.4219361 4.0496,7.8183721 C 3.57725,7.2148101 3.446663,6.8188251 3.682839,6.6088911 C 3.741882,6.5564081 3.812111,6.5305701 3.890017,6.5277001 Z M 10.110984,0.6007024 C 8.693933,0.5744604 7.09371,1.2831044 6.017801,2.7788811 C 5.860349,2.9888151 5.730096,3.1992621 5.572645,3.5404041 C 7.383323,3.8553051 8.853914,5.4823891 8.853914,7.2668251 C 8.853914,7.7654171 8.746434,8.2356171 8.562743,8.6554851 C 9.664894,8.4980351 10.349096,8.2379061 10.978897,7.8967601 C 12.369708,7.1095111 13.445447,5.8235211 13.445447,3.9603621 C 13.445447,1.8347834 11.947905,0.6269444 10.110984,0.6007024 Z M 11.345661,2.4597141 C 11.472512,2.4492061 11.60522,2.4956931 11.687226,2.5941001 C 11.844676,2.7515501 11.816678,3.0144351 11.659229,3.1456441 L 10.427353,4.1955381 C 10.269903,4.3267461 10.008062,4.3260351 9.850612,4.1423431 C 9.719403,3.9586501 9.743557,3.7230511 9.901006,3.5656021 L 11.135681,2.5437051 C 11.194725,2.4945021 11.269548,2.4660181 11.345661,2.4597141 Z M 10.402155,9.1034381 C 9.69363,9.3658571 8.905172,9.5241081 8.039196,9.5765911 V 14.61328 C 8.039196,15.111872 8.379475,15.4 8.904307,15.4 H 9.562242 C 10.060833,15.4 10.402155,15.138114 10.402155,14.61328 Z" fill="#2e3434"/>
</svg>
