<?xml version="1.0" encoding="UTF-8"?>
<svg height="16px" viewBox="0 0 16 16" width="16px" xmlns="http://www.w3.org/2000/svg">
    <path d="M 7.18826,2.676783 C 5.565035,2.676783 4.395357,2.867844 3.48826,3.321392 C 2.50955,3.75107 1.817462,4.419348 1.363913,5.183217 H 14.66 C 14.18258,4.419348 13.490314,3.75107 12.583217,3.321392 C 11.676121,2.867844 10.506443,2.676783 8.883217,2.676783 Z M 1.053565,5.78 C 0.743243,6.448387 0.6,7.21226 0.6,8 C 0.6,9.957421 1.531019,11.747639 3.440696,12.678609 C 4.347793,13.132156 5.541385,13.323217 7.16461,13.323217 H 8.859304 C 10.482529,13.323217 11.652207,13.132156 12.559304,12.678609 C 14.468982,11.747639 15.4,9.93355 15.4,8 C 15.4,7.21226 15.256759,6.472258 14.946435,5.78 Z M 7.985021,7.130185 C 8.591554,7.122 9.090637,7.605577 9.101591,8.212067 L 9.101853,8.232039 C 9.101844,8.838625 8.611572,9.331128 8.004993,9.333892 C 7.398396,9.33665 6.903654,8.848603 6.898147,8.242025 C 6.892608,7.635411 7.378438,7.138422 7.985021,7.130185 Z" fill="#2e3434"/>
</svg>
