<?xml version="1.0" encoding="UTF-8"?>
<svg height="16px" viewBox="0 0 16 16" width="16px" xmlns="http://www.w3.org/2000/svg">
    <path d="M 6.8992022,0.10020265 C 9.6792606,0.07268497 12.982166,2.8519424 12.982166,5.5218481 C 12.982166,7.7513179 10.752754,9.4864937 8.9636342,9.4864937 C 6.4588691,9.4864937 3.0178345,6.5973017 3.0178345,4.1751845 C 3.0178345,1.8355245 4.8073198,0.12773217 6.8992022,0.10020265 Z M 5.3456287,1.949329 C 5.0660339,1.9426159 4.7864332,2.0731417 4.6143287,2.3311902 C 4.3115642,2.7165314 4.3950603,3.2379275 4.8079419,3.540692 L 6.0738942,4.4224495 C 6.4867778,4.7252151 7.0378453,4.6141292 7.313021,4.2288363 C 7.5883163,3.81593 7.5056981,3.2670528 7.0928154,3.0193345 L 5.8268622,2.1107506 C 5.6823475,2.0075362 5.5133122,1.9533659 5.3456287,1.949329 Z M 11.551992,5.4115117 C 11.05658,5.4115117 10.256649,6.0460763 9.7887092,6.8442518 C 9.2932972,7.614958 9.3201237,8.2473668 9.8155346,8.2473668 C 10.338534,8.2473668 11.110466,7.614958 11.605877,6.8442518 C 12.073818,6.0460763 12.047521,5.4115117 11.551992,5.4115117 Z M 4.4209486,8.3306447 C 5.3017729,9.1288202 6.3479639,9.7611263 7.3939664,10.09136 V 15.074693 C 7.3939664,15.625164 7.0364963,15.9 6.4585551,15.9 H 5.3591585 C 4.7810977,15.9 4.4209486,15.625164 4.4209486,15.074693 Z" fill="#2e3434"/>
</svg>
