<?xml version="1.0" encoding="UTF-8"?>
<svg height="16px" viewBox="0 0 16 16" width="16px" xmlns="http://www.w3.org/2000/svg">
    <path d="M 9.141683,1.6 C 6.424349,1.6 4.179761,4.731598 4.179761,8.571329 C 4.179761,10.134211 4.53153,11.825626 5.007418,12.261451 V 14.4 H 5.578732 V 12.253619 C 5.868395,12.047771 6.079988,11.599459 6.108956,11.150117 C 5.203198,10.894138 4.553481,10.048823 4.553481,9.083954 C 4.553481,8.493229 4.789686,7.961555 5.183514,7.548043 C 5.380412,4.909448 7.113886,2.564596 9.082993,2.564596 C 10.264439,2.564596 10.816519,3.452303 10.816519,5.086632 L 6.108956,7.567606 C 5.41978,7.922035 5.105232,8.493229 5.105232,9.083954 C 5.105232,9.970057 5.83332,10.698147 6.719425,10.698147 C 7.152619,10.698147 7.449267,10.578834 8.059676,10.263772 L 10.421279,8.964612 C 11.445229,8.393569 11.820239,7.704032 11.820239,6.246888 V 4.947726 C 11.820239,2.880173 10.913849,1.6 9.141683,1.6 Z M 6.680299,8.058703 C 7.231627,8.058703 7.684021,8.512913 7.684021,9.083954 C 7.684021,9.654996 7.231627,10.10724 6.680299,10.10724 C 6.109256,10.10724 5.656982,9.654996 5.656982,9.083954 C 5.656982,8.532596 6.109256,8.058703 6.680299,8.058703 Z M 6.680299,8.451986 C 6.325869,8.451986 6.050266,8.729524 6.050266,9.083954 C 6.050266,9.438383 6.325869,9.713987 6.680299,9.713987 C 7.015044,9.713987 7.290739,9.438383 7.290739,9.083954 C 7.290739,8.749208 7.015044,8.451986 6.680299,8.451986 Z" fill="#2e3434"/>
</svg>
